<svg xmlns="http://www.w3.org/2000/svg" viewBox="0 0 773 323" width="773" height="323">
  <defs>
    <!-- Coastal Ocean Blue Gradient -->
    <linearGradient id="logoGradient" x1="0%" y1="0%" x2="100%" y2="100%">
      <stop offset="0%" style="stop-color:#5FB3BD"/>
      <stop offset="35%" style="stop-color:#3A7D8C"/>
      <stop offset="70%" style="stop-color:#2C5F6D"/>
      <stop offset="100%" style="stop-color:#1D4252"/>
    </linearGradient>

    <!-- Soft Aqua Accent Gradient -->
    <linearGradient id="logoAccent" x1="0%" y1="0%" x2="100%" y2="100%">
      <stop offset="0%" style="stop-color:#9DC5C7"/>
      <stop offset="50%" style="stop-color:#7DB5B8"/>
      <stop offset="100%" style="stop-color:#6BA5A8"/>
    </linearGradient>

    <!-- Soft glow filter for elegance -->
    <filter id="softGlow" x="-20%" y="-20%" width="140%" height="140%">
      <feGaussianBlur stdDeviation="2" result="coloredBlur"/>
      <feMerge>
        <feMergeNode in="coloredBlur"/>
        <feMergeNode in="SourceGraphic"/>
      </feMerge>
    </filter>
  </defs>

  <!-- Background subtle glow -->
  <ellipse cx="386" cy="150" rx="200" ry="100" fill="#3A7D8C" opacity="0.08"/>

  <!-- Main Venera text with gradient -->
  <g fill="url(#logoGradient)" filter="url(#softGlow)">
    <!-- Venera letter paths -->
    <path d="M 100.5 13 L 119.5 14 L 121.5 14 L 145.5 20 L 158 28.5 L 179 58.5 L 180 65.5 L 182 68.5 L 186 83.5 L 186 91.5 L 187 92.5 L 187 118.5 L 188 119.5 L 187 120.5 L 187 134.5 L 186 135.5 L 184 159.5 L 182 163.5 L 178 185.5 L 174 198.5 L 155 237.5 L 142 256.5 L 132.5 266 L 127 270.5 L 128.5 274 L 134.5 274 L 147.5 270 L 189.5 248 Q 214.3 229.8 234 206.5 Q 238.4 197.4 246 191.5 Q 248.6 182.6 255 177.5 L 261 164.5 L 272 148.5 L 279 129.5 Q 279.4 119.9 283 113.5 L 284 99.5 L 281.5 96 L 274.5 94 L 258.5 85 L 253 79.5 L 241 61.5 L 240 56.5 L 240 41.5 L 246 28.5 L 252.5 22 Q 257.2 18.2 267.5 20 L 281.5 25 L 287 30.5 L 296 48.5 L 297 59.5 L 298 60.5 L 298 69.5 L 299 70.5 L 299 79.5 L 301.5 83 L 310 90.5 Q 311 95 308.5 96 L 300.5 97 L 297 100.5 L 294 116.5 L 287 141.5 L 277 161.5 L 273 173.5 Q 251.4 208.9 223.5 238 L 194.5 262 L 168.5 277 L 149.5 284 L 133.5 288 L 122.5 289 L 121.5 290 L 110.5 290 L 103.5 288 L 99 283.5 Q 96.3 279.7 98 271.5 L 105.5 265 L 123.5 255 L 133 246.5 L 143 223.5 L 150 213.5 L 156 194.5 L 160 175.5 L 162 172.5 L 165 142.5 L 167 135.5 L 167 106.5 L 166 105.5 L 165 91.5 L 159 76.5 Q 160.2 68.2 158 63.5 L 153 53.5 L 137.5 38 L 122.5 30 L 104.5 27 L 90.5 30 L 74.5 38 L 51 59.5 L 45 67.5 L 35 87.5 L 30 103.5 L 30 107.5 L 27 114.5 L 26 149.5 L 27 150.5 L 27 157.5 L 30 173.5 L 39 196.5 Q 46.7 203.3 51 213.5 L 65.5 228 L 90 244.5 Q 92.3 247.7 91 254.5 Q 89.5 257.5 83.5 256 L 59.5 241 L 38 222.5 L 24 198.5 L 16 175.5 L 15 164.5 L 14 163.5 L 13 126.5 L 14 125.5 L 14 118.5 L 18 96.5 L 24 77.5 L 32 62.5 L 46 43.5 L 55.5 34 Q 73.2 18.7 100.5 13 Z M 263 39 Q 258 42 256 49 L 256 58 L 261 68 Q 268 78 281 82 Q 286 83 287 81 Q 289 68 286 61 L 277 42 L 271 39 L 263 39 Z " opacity="0.98"/>
  </g>

  <!-- "Massage Center" text with luxury gold gradient -->
  <g fill="url(#logoAccent)" filter="url(#softGlow)">
    <path d="M 746.5 188 L 751 191.5 L 752 195.5 L 748 208.5 L 747 221.5 L 741 233.5 L 738 245.5 L 738 252.5 Q 733.9 255.7 735 263 Q 740.6 262.9 743 258.5 L 749.5 247 L 754.5 247 L 762 252.5 L 763 257.5 L 750.5 274 L 737.5 283 L 728.5 284 L 720 278.5 L 716.5 274 L 711.5 275 L 702.5 282 L 692.5 284 L 680.5 284 Q 668.5 281 662 272.5 Q 653.8 260.7 653 241.5 L 657 227.5 L 662 217.5 L 670.5 207 L 686.5 196 Q 697 195 703.5 190 L 709.5 190 Q 712.5 193 719.5 192 L 725.5 196 L 729.5 196 L 732.5 193 L 744.5 190 L 746.5 188 Z M 706 207 L 691 215 L 685 221 L 674 239 L 674 255 L 677 261 Q 680 265 687 267 Q 695 268 700 266 L 710 259 L 717 250 L 718 240 L 721 233 L 721 225 L 723 220 L 722 213 L 717 208 L 706 207 Z " opacity="0.98"/>
    <path d="M 638.5 191 L 644.5 192 L 658 200.5 Q 659.8 215.3 651.5 220 L 640.5 221 Q 638.7 218.2 632.5 220 L 623 228.5 L 611 246.5 L 598 276.5 L 591.5 283 L 579.5 285 L 576 282.5 L 577 267.5 L 581 258.5 L 582 248.5 L 585 240.5 L 586 221 Q 582.2 220 581 222.5 L 574.5 230 Q 567.3 231.3 566 226.5 L 565 220.5 Q 571.2 207.2 581.5 198 Q 586.7 190.7 601.5 193 L 608 200.5 Q 610.6 206.4 609 216.5 L 610.5 218 Q 617.4 205.4 628.5 197 Q 634.7 197.7 636 193.5 Q 635.3 191.3 637.5 192 L 638.5 191 Z " opacity="0.98"/>
    <path d="M 521.5 193 L 531.5 193 L 539.5 195 L 548 202.5 L 552 210.5 L 552 215.5 Q 548.7 228.2 539.5 235 L 527.5 242 L 512.5 247 L 503.5 248 L 496 252.5 L 495 257.5 L 496 261.5 L 501.5 267 L 509.5 268 L 510.5 267 L 522.5 266 L 533.5 259 L 540.5 257 L 547 261.5 L 548 265.5 L 545.5 269 Q 531.1 283.1 505.5 286 L 492.5 283 L 479 272.5 L 473 258.5 L 473 250.5 L 475 245.5 L 476 235.5 L 479 227.5 L 486 215.5 L 494.5 207 Q 506.3 198.3 521.5 193 Z M 521 210 L 512 214 Q 503 221 500 234 L 505 236 L 525 227 L 531 219 L 530 212 L 529 210 L 521 210 Z " opacity="0.98"/>
    <path d="M 316.5 194 L 319.5 194 L 333 204.5 Q 337.8 210.7 336 223.5 Q 332.8 232.3 325.5 237 L 310.5 245 L 294.5 250 L 286.5 251 L 282 254.5 Q 281.6 265.4 288.5 269 L 297.5 270 Q 298.8 267.8 303.5 269 L 305.5 270 Q 314.7 267.2 320 260.5 L 320.5 259 L 327.5 259 L 331 261 L 333 264.5 L 333 267.5 L 324.5 277 L 309.5 284 L 295.5 287 L 287.5 287 L 273.5 283 L 265 274.5 L 262 260.5 L 260 257.5 L 260 252.5 Q 264.9 248.4 263 237.5 L 269 225.5 Q 275.3 214.8 284.5 207 L 296.5 200 L 316.5 194 Z M 312 209 L 298 215 Q 288 221 284 233 Q 283 237 287 238 L 298 236 L 311 230 Q 320 226 319 213 Q 318 208 312 209 Z " opacity="0.98"/>
    <path d="M 432.5 194 L 439.5 195 L 451 204.5 L 451 221.5 L 449 231.5 L 444 245.5 L 441 263.5 L 444.5 265 L 455.5 252 L 461.5 251 L 466 254.5 L 467 259.5 L 460 267.5 L 454.5 277 L 440.5 286 L 433.5 287 L 425 282 L 421 276.5 L 420 269.5 L 421 268.5 L 421 259.5 L 423 255.5 L 430 223.5 L 430 216.5 Q 429.3 214.3 425.5 215 L 413 227.5 L 410 234.5 L 400 246.5 L 398 255.5 L 377.5 283 L 371.5 286 L 364.5 286 L 363 283.5 L 364 282.5 L 365 261.5 Q 367.7 258.2 367 251.5 L 371 244.5 L 373 223.5 L 371 222.5 L 367.5 227 L 361.5 230 L 356.5 230 L 352 226.5 L 354 218.5 L 366.5 205 Q 372.7 198.2 382.5 195 L 386.5 196 L 394 203.5 Q 396.3 208.3 395 216.5 L 397.5 222 L 416.5 202 L 432.5 194 Z " opacity="0.98"/>
  </g>

  <!-- Elegant underline with gradient -->
  <ellipse cx="386" cy="290" rx="120" ry="2" fill="url(#logoGradient)" opacity="0.5"/>

  <!-- Decorative dots - coastal ocean theme -->
  <circle cx="266" cy="290" r="3" fill="#5FB3BD" opacity="0.7"/>
  <circle cx="386" cy="290" r="4" fill="#9DC5C7" opacity="0.8"/>
  <circle cx="506" cy="290" r="3" fill="#2C5F6D" opacity="0.7"/>
</svg>